<?xml version="1.0" standalone="no"?>
<!DOCTYPE svg PUBLIC "-//W3C//DTD SVG 20010904//EN"
 "http://www.w3.org/TR/2001/REC-SVG-20010904/DTD/svg10.dtd">
<svg version="1.0" xmlns="http://www.w3.org/2000/svg"
 width="648.000000pt" height="648.000000pt" viewBox="0 0 648.000000 648.000000"
 preserveAspectRatio="xMidYMid meet">
<metadata>
Created by potrace 1.14, written by Peter Selinger 2001-2017
</metadata>
<g transform="translate(0.000000,648.000000) scale(0.100000,-0.100000)"
fill="#000000" stroke="none">
<path d="M3218 5956 c-1 -2 -59 -6 -128 -10 -798 -40 -1511 -399 -1999 -1005
-463 -576 -672 -1342 -570 -2091 82 -610 337 -1134 759 -1561 238 -241 460
-401 745 -539 228 -110 548 -210 754 -236 26 -3 71 -9 101 -14 200 -33 488
-31 740 6 622 90 1143 355 1573 798 402 414 648 915 736 1499 59 387 41 728
-59 1127 -139 550 -448 1036 -898 1407 -443 366 -1009 581 -1602 609 -69 3
-130 7 -137 9 -6 2 -13 2 -15 1z m172 -271 c390 -47 674 -187 953 -469 267
-270 456 -591 590 -1001 112 -344 157 -610 162 -955 4 -244 -6 -373 -46 -590
-69 -388 -223 -782 -418 -1077 -200 -301 -443 -530 -698 -659 -402 -203 -892
-223 -1320 -52 -233 92 -419 230 -614 454 -332 382 -536 879 -624 1524 -11 81
-14 553 -4 645 35 328 131 710 246 979 172 403 462 771 761 967 282 185 673
275 1012 234z"/>
<path d="M2110 3205 l0 -776 62 3 62 3 14 75 c29 165 152 333 277 379 60 23
63 23 690 22 648 0 683 -2 770 -41 118 -54 215 -199 237 -357 l11 -83 51 1
c28 0 58 2 66 5 14 3 16 91 15 771 l0 768 -66 3 -66 3 -7 -78 c-18 -191 -120
-335 -282 -395 -58 -22 -66 -22 -714 -22 l-655 -1 -58 28 c-31 16 -76 48 -100
72 -81 83 -152 227 -165 332 l-7 58 -68 3 -67 3 0 -776z"/>
</g>
</svg>
